/* XPM */
static char *c5b72a6183d74352d793495afe95e841TSNdyKL0m5xLXXeO[] = {
/* columns rows colors chars-per-pixel */
"16 16 2 1 ",
"  c None",
". c #19A7FF",
/* pixels */
"                ",
"     .......    ",
"    ..     ..   ",
"   ..       ..  ",
"  ..  .....  .. ",
"  .    .  .   . ",
"  .    .  .   . ",
"  .  ......   . ",
"  .   ....    . ",
"  .    ..     . ",
"  ..   ..    .. ",
"   ..  ..   ..  ",
"    ..     ..   ",
"     .......    ",
"                ",
"                "
};
