/* XPM */
static char *_2e4eebe37ba444ed4160b0b392d0283Twe5ezPHocxrKUun[] = {
/* columns rows colors chars-per-pixel */
"32 32 19 1 ",
"  c #1899FF",
". c #18A4FF",
"X c #18A6FF",
"o c #19A7FF",
"O c #26ABFF",
"+ c #27ADFF",
"@ c #30B0FF",
"# c #32B4FC",
"$ c #78DAF3",
"% c #8CE1F3",
"& c #8BE0F4",
"* c #95E7F2",
"= c #9AEBF0",
"- c #ABF3EF",
"; c #B3F8EE",
": c #B4F9EE",
"> c #BBFDEC",
", c #F9F9F9",
"< c white",
/* pixels */
"<<<<<<<<<<<<<<<<<<<<<<<<<<<<<<<<",
"<<<<<<<<<<<<<<<<<<<<<<<<<<<<<<<<",
"<<<<<<<<<<<=oooooooo<<<<<<<<<<<<",
"<<<<<<<<<ooo<<<<<<<<oo&<<<<<<<<<",
"<<<<<<<+oo<<<<<<<<<<<<oo<<<<<<<<",
"<<<<<<oo<<<<<<<<<<<<<<<<o*<<<<<<",
"<<<<<oo<<<<<<<<<<<<<<<<<<o&<<<<<",
"<<<<o<<<<<<o<oooo<<<<<<<<<o><<<<",
"<<<oo<<<<<<<ooooooooo<<<<<<o<<<<",
"<<<o<<<<<<<<ooooooooooo<<<<oo<<<",
"<<#<<<<<<<<<<<ooooooooo<<<<<o<<<",
"<<o<<<<<<<<<<<oooo,,oooo<<<<o:<<",
"<<o<<<<<<<<<<<oooo<<oooo<<<<<o<<",
"<<o<<<<<<<<oo<oooo<<oooo<<<<<o<<",
"<oo<<<<<<<<oooooooooooo<<<<<<o<<",
"<oo<<<<<<<<oooooooooooo<<<<<<o<<",
"<oo<<<<<<<<<oooooooooo<<<<<<<o<<",
"<<o<<<<<<<<<<oooo<<<<<<<<<<<<o<<",
"<<o<<<<<<<<<<oooo<<<<<<<<<<<<;<<",
"<<o<<<<<<<<<<ooo <<<<<<<<<<<o<<<",
"<<@<<<<<<<<<<oooo<<<<<<<<<<<o<<<",
"<<<o<<<<<<<<<oooo<<<<<<<<<<o;<<<",
"<<<-o<<<<<<<<oooo<<<<<<<<<oo<<<<",
"<<<<oo<<<<<<<oooo<<<<<<<<oo<<<<<",
"<<<<<oo<<<<<<<<<<<<<<<<<oo<<<<<<",
"<<<<<<oo<<<<<<<<<<<<<<<oo<<<<<<<",
"<<<<<<<&oo<<<<<<<<<<<oo-<<<<<<<<",
"<<<<<<<<<Oooo<<<<<<ooo<<<<<<<<<<",
"<<<<<<<<<<<<ooooooo$<<<<<<<<<<<<",
"<<<<<<<<<<<<<<<<<<<<<<<<<<<<<<<<",
"<<<<<<<<<<<<<<<<<<<<<<<<<<<<<<<<",
"<<<<<<<<<<<<<<<<<<<<<<<<<<<<<<<<"
};
