/* XPM */
static char *_b0f82faf08642c9c619eae92d3d1a4bamsp3YCZRMc1tbI1[] = {
/* columns rows colors chars-per-pixel */
"126 128 83 1 ",
"  c #1792FF",
". c #1798FF",
"X c #1899FF",
"o c #189CFF",
"O c #189FFF",
"+ c #18A3FF",
"@ c #18A5FF",
"# c #19A7FF",
"$ c #1BA8FF",
"% c #1CA8FF",
"& c #1EA8FF",
"* c #22AAFF",
"= c #24ABFF",
"- c #27ADFF",
"; c #28ACFF",
": c #29ADFF",
"> c #2FAFFF",
", c #34B5FB",
"< c #30B0FF",
"1 c #32B4FC",
"2 c #34B4FC",
"3 c #38B7FB",
"4 c #39B3FF",
"5 c #3CB4FF",
"6 c #3EB5FF",
"7 c #3BB8FB",
"8 c #3DB9FB",
"9 c #42BCFA",
"0 c #44BCFA",
"q c #44BCFB",
"w c #4ABEFB",
"e c #4EBFFB",
"r c #4CC0FA",
"t c #55C3FA",
"y c #55C4FA",
"u c #58C4FA",
"i c #5EC7F9",
"p c #5FC8FA",
"a c #62C6FB",
"s c #67CAFA",
"d c #6ACCF9",
"f c #78DAF3",
"g c #7CDBF3",
"h c #78D1F9",
"j c #80DDF4",
"k c #84DEF4",
"l c #86DFF4",
"z c #89E3F1",
"x c #8EE2F3",
"c c #8FE6F1",
"v c #88E0F4",
"b c #8CE0F4",
"n c #92E6F2",
"m c #95E7F2",
"M c #93E4F4",
"N c #95E4F4",
"B c #9AE7F3",
"V c #96E8F2",
"C c #9AEBF0",
"Z c #9CE8F3",
"A c #9AECF0",
"S c #9DEDF0",
"D c #9EEDF0",
"F c #A7F2EE",
"G c #AAF2EF",
"H c #ABF3EF",
"J c #ADF5EE",
"K c #ACF4EF",
"L c #ADF4EF",
"P c #B2F7EE",
"I c #B3F8EE",
"U c #B5FAEC",
"Y c #B7FBEC",
"T c #B5F8EE",
"R c #B9FBED",
"E c #BBFDEC",
"W c #BBFEEC",
"Q c #BCFEEC",
"! c #A0EDF0",
"~ c #A3EFF0",
"^ c #A5F0F0",
"/ c #F9F9F9",
"( c white",
/* pixels */
"((((((((((((((((((((((((((((((((((((((((((((((((((((((((((((((((((((((((((((((((((((((((((((((((((((((((((((((((((((((((((((((",
"((((((((((((((((((((((((((((((((((((((((((((((((((((((((((((((((((((((((((((((((((((((((((((((((((((((((((((((((((((((((((((((",
"((((((((((((((((((((((((((((((((((((((((((((((((((((((((((((((((((((((((((((((((((((((((((((((((((((((((((((((((((((((((((((((",
"((((((((((((((((((((((((((((((((((((((((((((((((((((((((((((((((((((((((((((((((((((((((((((((((((((((((((((((((((((((((((((((",
"((((((((((((((((((((((((((((((((((((((((((((((((((((((((((((((((((((((((((((((((((((((((((((((((((((((((((((((((((((((((((((((",
"((((((((((((((((((((((((((((((((((((((((((((((((((((((((((((((((((((((((((((((((((((((((((((((((((((((((((((((((((((((((((((((",
"((((((((((((((((((((((((((((((((((((((((((((((((((((((((((((((((((((((((((((((((((((((((((((((((((((((((((((((((((((((((((((((",
"((((((((((((((((((((((((((((((((((((((((((((((((((((((((((((((((((((((((((((((((((((((((((((((((((((((((((((((((((((((((((((((",
"((((((((((((((((((((((((((((((((((((((((((((((((((((Uw################l(((((((((((((((((((((((((((((((((((((((((((((((((((((((",
"((((((((((((((((((((((((((((((((((((((((((((((B5############################,(((((((((((((((((((((((((((((((((((((((((((((((((",
"((((((((((((((((((((((((((((((((((((((((((((FC8*#############################CCU((((((((((((((((((((((((((((((((((((((((((((((",
"(((((((((((((((((((((((((((((((((((((((((n8%############+######################%:=gU((((((((((((((((((((((((((((((((((((((((((",
"(((((((((((((((((((((((((((((((((((((K1#######+++##((((((((((((((((((((((##+++######2z((((((((((((((((((((((((((((((((((((((((",
"(((((((((((((((((((((((((((((((((((UPt$############((((((((((((((((((((((############2PR((((((((((((((((((((((((((((((((((((((",
"((((((((((((((((((((((((((((((((((P*$#$#######(((((((((((((((((((((((((((((((###########lJ((((((((((((((((((((((((((((((((((((",
"(((((((((((((((((((((((((((((((((U1###$X####((((((((((((((((((((((((((((((((((((##########m(((((((((((((((((((((((((((((((((((",
"(((((((((((((((((((((((((((((((9#########((((((((((((((((((((((((((((((((((((((((((###++####((((((((((((((((((((((((((((((((((",
"((((((((((((((((((((((((((((((U$#########((((((((((((((((((((((((((((((((((((((((((###.O####gS((((((((((((((((((((((((((((((((",
"(((((((((((((((((((((((((((Uj:####.##+((((((((((((((((((((((((((((((((((((((((((((((((#%####%#7n((((((((((((((((((((((((((((((",
"(((((((((((((((((((((((((((t#########(((((((((((((((((((((((((((((((((((((((((((((((((((#######2((((((((((((((((((((((((((((((",
"(((((((((((((((((((((((((Uu#######((((((((((((((((((((((((((((((((((((((((((((((((((((((((######,xR(((((((((((((((((((((((((((",
"((((((((((((((((((((((((P#######((((((((((((((((((((((((((((((((((((((((((((((((((((((((((((###+###8((((((((((((((((((((((((((",
"(((((((((((((((((((((((I1##+###((((((((((((((((((((((((((((((((((((((((((((((((((((((((((((((#######m(((((((((((((((((((((((((",
"(((((((((((((((((((((1###+###(((((((((((((((((((((((((((((((((((((((((((((((((((((((((((((((((((######((((((((((((((((((((((((",
"((((((((((((((((((((P########(((((((((((((((((((((((((((((((((((((((((((((((((((((((((((((((((((######kQ((((((((((((((((((((((",
"(((((((((((((((((((h=#######(((((((((((((((((((((((((((((((((((((((((((((((((((((((((((((((((((((######3W(((((((((((((((((((((",
"((((((((((((((((((W6%######(((((((((((((((((((((((((((((((((((((((((((((((((((((((((((((((((((((((######k(((((((((((((((((((((",
"((((((((((((((((((N#####(((((((((((((((((((((((((((((((((((((((((((((((((((((((((((((((((((((((((((#######((((((((((((((((((((",
"(((((((((((((((((r######((((((((((((((((((((((((((((((((((((((((((((((((((((((((((((((((((((((((((((######Q(((((((((((((((((((",
"((((((((((((((((J######((((((((((((((((((((((((((((((((((((((((((((((((((((((((((((((((((((((((((((((#$X##3Q((((((((((((((((((",
"(((((((((((((((1###X#((((((((((((((((((((((((###(((#################(((((((((((((((((((((((((((((((((($$+###W(((((((((((((((((",
"(((((((((((((((######((((((((((((((((((((((((###((#########################(((((((((((((((((((((((((((##+###iU((((((((((((((((",
"(((((((((((((Wk######(((((((((((((((((((((((((((((#######+#####################((((((((((((((((((((((((##.$##9((((((((((((((((",
"(((((((((((((b#####((((((((((((((((((((((((((((((((##############################(((((((((((((((((((((((#####-((((((((((((((((",
"((((((((((((P######(((((((((((((((((((((((((((((####################################((((((((((((((((((((((####A(((((((((((((((",
"((((((((((((#####((((((((((((((((((((((((((((((#######################################(((((((((((((((((((((#+##1((((((((((((((",
"((((((((((((##O##(((((((((((((((((((((((((((((((#O##################################.###(((((((((((((((((((#####a(((((((((((((",
"(((((((((((U#####((((((((((((((((((((((((((((((##+######################################(((((((((((((((((((#####:(((((((((((((",
"((((((((((W1###((((((((((((((((((((((((((((((((##########################################(((((((((((((((((((####$Q((((((((((((",
"((((((((((J$###(((((((((((((((((((((((((((((((((#######+###############################+#((((((((((((((((((((####P((((((((((((",
"(((((((((W####(((((((((((((((((((((((((((((((((((((((((((#################################(((((((((((((((((((## #K((((((((((((",
"(((((((((M####(((((((((((((((((((((((((((((((((((((((((((###################################((((((((((((((((((###iW(((((((((((",
"((((((((n1###((((((((((((((((((((((((((((((((((((((((((((+##################################((((((((((((((((((####7(((((((((((",
"((((((((4####((((((((((((((((((((((((((((((((((((((((((((###################################((((((((((((((((((#####(((((((((((",
"((((((((4####((((((((((((((((((((((((((((((((((((((((((((###############////################+(((((((((((((((((#####(((((((((((",
"(((((((R*###((((((((((((((((((((((((((((((((((((((((((((###############//////################(((((((((((((((((((###L((((((((((",
"(((((((!####((((((((((((((((((((((((((((((((((((((((((((###############////////##############(((((((((((((((((((###1R(((((((((",
"(((((((!####((((((((((((((((((((((((((((((((((((((((((((###############////////##############(((((((((((((((((((####I(((((((((",
"((((((Uy####((((((((((((((((((((((((((((((((((((((((((((###############((((((((##############((((((((((((((((((((###b(((((((((",
"((((((e*####((((((((((((((((((((((((((((((((((((((((((((###############((((((((##############((((((((((((((((((((###1(((((((((",
"((((((######((((((((((((((((((((((((((((((((((((((((((((##############+((((((((##############((((((((((((((((((((#+##U((((((((",
"((((((######((((((((((((((((((((((((((((((((((((((((((((##############(((((((((##+##########+((((((((((((((((((((####U((((((((",
"((((((#####(((((((((((((((((((((((((((((((((((((((((((################(((((((((##############((((((((((((((((((((####U((((((((",
"((((((####((((((((((((((((((((((((((((((((((((((((((((################(((((((((##############((((((((((((((((((((####U((((((((",
"((((((####(((((((((((((((((((((((((((((((((#######((((################(((((((((##############((((((((((((((((((((####U((((((((",
"(((((W####(((((((((((((((((((((((((((((((((########.##################(((((((#############+##((((((((((((((((((((+###N((((((((",
"((((R0####(((((((((((((((((((((((((((((((((###########################(((((((################((((((((((((((((((((####0D(((((((",
"((((G#####(((((((((((((((((((((((((((((((((########################O##########.#############(((((((((((((((((((((#####-(((((((",
"((((J#####(((((((((((((((((((((((((((((((((###########+##################################O##(((((((((((((((((((((#####=(((((((",
"((((G#####(((((((((((((((((((((((((((((((((#############################################%###(((((((((((((((((((((#####-(((((((",
"((((G#####(((((((((((((((((((((((((((((((((################################################((((((((((((((((((((((#####-(((((((",
"((((G#####((((((((((((((((((((((((((((((((((##OOOO########################################(((((((((((((((((((((((#####=(((((((",
"((((J#####((((((((((((((((((((((((((((((((((############################################+((((((((((((((((((((((((#####-(((((((",
"((((G#####((((((((((((((((((((((((((((((((((########################################+###(((((((((((((((((((((((((#####=(((((((",
"((((G#####((((((((((((((((((((((((((((((((((##########################################(((((((((((((((((((((((((((#####-(((((((",
"((((J#####((((((((((((((((((((((((((((((((((((#######################################((((((((((((((((((((((((((((#####=(((((((",
"((((G#####((((((((((((((((((((((((((((((((((((+######################################((((((((((((((((((((((((((((####%>(((((((",
"((((L#####(((((((((((((((((((((((((((((((((((((((((##############################+(((((((((((((((((((((((((((((((####dU(((((((",
"((((P,####((((((((((((((((((((((((((((((((((((((((((##################+#########(((((((((((((((((((((((((((((((((####P((((((((",
"((((((####((((((((((((((((((((((((((((((((((((((((((###############+(((#####(((((((((((((((((((((((((((((((((((((####U((((((((",
"((((((####((((((((((((((((((((((((((((((((((((((((((###############((((((((((((((((((((((((((((((((((((((((((((((####U((((((((",
"((((((#####(((((((((((((((((((((((((((((((((((((((((###############((((((((((((((((((((((((((((((((((((((((((((((+###U((((((((",
"((((((######((((((((((((((((((((((((((((((((((((((((###############((((((((((((((((((((((((((((((((((((((((((((((####W((((((((",
"((((((######((((((((((((((((((((((((((((((((((((((((#.#############((((((((((((((((((((((((((((((((((((((((((((((###8(((((((((",
"((((((j7####(((((((((((((((((((((((((((((((((((((((+#############+#((((((((((((((((((((((((((((((((((((((((((((((###P(((((((((",
"(((((((j####(((((((((((((((((((((((((((((((((((((((###############+(((((((((((((((((((((((((((((((((((((((((((((####P(((((((((",
"(((((((!####(((((((((((((((((((((((((((((((((((((((################(((((((((((((((((((((((((((((((((((((((((((((####P(((((((((",
"(((((((!####(((((((((((((((((((((((((((((((((((((((################(((((((((((((((((((((((((((((((((((((((((((((###3W(((((((((",
"(((((((!####(((((((((((((((((((((((((((((((((((((((+############.##(((((((((((((((((((((((((((((((((((((((((((((###Q((((((((((",
"((((((((;####((((((((((((((((((((((((((((((((((((((#############.#+(((((((((((((((((((((((((((((((((((((((((((+####(((((((((((",
"((((((((4####((((((((((((((((((((((((((((((((((((((#############.##(((((((((((((((((((((((((((((((((((((((((((#####(((((((((((",
"((((((((t%###((((((((((((((((((((((((((((((((((((((###########+##%#((((((((((((((((((((((((((((((((((((((((((####8n(((((((((((",
"((((((((N<###((((((((((((((((((((((((((((((((((((((################((((((((((((((((((((((((((((((((((((((((((####x((((((((((((",
"(((((((((I####(((((((((((((((((((((((((((((((((((((################((((((((((((((((((((((((((((((((((((((((((####P((((((((((((",
"((((((((((####(((((((((((((((((((((((((((((((((((((###############+(((((((((((((((((((((((((((((((((((((((((#####(((((((((((((",
"((((((((((d####((((((((((((((((((((((((((((((((((((################(((((((((((((((((((((((((((((((((((((((((#####(((((((((((((",
"((((((((((W1###((((((((((((((((((((((((((((((((((((################((((((((((((((((((((((((((((((((((((((((####$I(((((((((((((",
"(((((((((((x#####((((((((((((((((((((((((((((((((((################((((((((((((((((((((((((((((((((((((((((#+##$((((((((((((((",
"((((((((((((#####((((((((((((((((((((((((((((((((((###############((((((((((((((((((((((((((((((((((((((((#####e((((((((((((((",
"((((((((((((I#####(((((((((((((((((((((((((((((((((##.############((((((((((((((((((((((((((((((((((((((######C(((((((((((((((",
"(((((((((((((F#####((((((((((((((((((((((((((((((((###############((((((((((((((((((((((((((((((((((((((#####g((((((((((((((((",
"(((((((((((((L######(((((((((((((((((((((((((((((((###############(((((((((((((((((((((((((((((((((((((##O##sW((((((((((((((((",
"((((((((((((((U#####+((((((((((((((((((((((((((((((###############((((((((((((((((((((((((((((((((((((######W(((((((((((((((((",
"(((((((((((((((3#####((((((((((((((((((((((((((((((###############((((((((((((((((((((((((((((((((((((#####1((((((((((((((((((",
"((((((((((((((((^######((((((((((((((((((((((((((((################(((((((((((((((((((((((((((((((((######c(((((((((((((((((((",
"((((((((((((((((^######(((((((((((((((((((((((((((((###############(((((((((((((((((((((((((((((((((##O##1((((((((((((((((((((",
"(((((((((((((((((j######((((((((((((((((((((((((((((+##############((((((((((((((((((((((((((((((((#####n(((((((((((((((((((((",
"(((((((((((((((((((######(((((((((((((((((((((((((((((((((((((((((((((((((((((((((((((((((((((((((#####:U(((((((((((((((((((((",
"(((((((((((((((((((l,######(((((((((((((((((((((((((((((((((((((((((((((((((((((((((((((((((((((#######i((((((((((((((((((((((",
"((((((((((((((((((((W1#####(((((((((((((((((((((((((((((((((((((((((((((((((((((((((((((((((((########P(((((((((((((((((((((((",
"(((((((((((((((((((((z1####(((((((((((((((((((((((((((((((((((((((((((((((((((((((((((((((((((#######2((((((((((((((((((((((((",
"((((((((((((((((((((((W,#######(((((((((((((((((((((((((((((((((((((((((((((((((((((((((((((######**J(((((((((((((((((((((((((",
"(((((((((((((((((((((((x########((((((((((((((((((((((((((((((((((((((((((((((((((((((((((((######NR((((((((((((((((((((((((((",
"(((((((((((((((((((((((((########((((((((((((((((((((((((((((((((((((((((((((((((((((((((#######1U((((((((((((((((((((((((((((",
"(((((((((((((((((((((((((((l#######(((((((((((((((((((((((((((((((((((((((((((((((((((((######$1((((((((((((((((((((((((((((((",
"(((((((((((((((((((((((((((Wz########(((((((((((((((((((((((((((((((((((((((((((((((((########uJ((((((((((((((((((((((((((((((",
"(((((((((((((((((((((((((((((l3#######+#(((((((((((((((((((((((((((((((((((((((((((#########GP((((((((((((((((((((((((((((((((",
"((((((((((((((((((((((((((((((n#####O.%#(((((((((((((((((((((((((((((((((((((((((((########1((((((((((((((((((((((((((((((((((",
"(((((((((((((((((((((((((((((((((1%########(((((((((((((((((((((((((((((((((((((########%=U(((((((((((((((((((((((((((((((((((",
"(((((((((((((((((((((((((((((((((WU###########(((((((((((((((((((((((((((((((###########LU((((((((((((((((((((((((((((((((((((",
"((((((((((((((((((((((((((((((((((((Z=########%###(((((((((((((((((((((((############1W(((((((((((((((((((((((((((((((((((((((",
"((((((((((((((((((((((((((((((((((((Q!Dt%######O#########((((((((#################$8DG((((((((((((((((((((((((((((((((((((((((",
"((((((((((((((((((((((((((((((((((((((((IFt#$##################################8!^I(((((((((((((((((((((((((((((((((((((((((((",
"(((((((((((((((((((((((((((((((((((((((((((JGG$#############################1JJW((((((((((((((((((((((((((((((((((((((((((((((",
"((((((((((((((((((((((((((((((((((((((((((((((-#############################g(((((((((((((((((((((((((((((((((((((((((((((((((",
"((((((((((((((((((((((((((((((((((((((((((((((((((((1#################:U((((((((((((((((((((((((((((((((((((((((((((((((((((((",
"((((((((((((((((((((((((((((((((((((((((((((((((((((((((((((((((((((((((((((((((((((((((((((((((((((((((((((((((((((((((((((((",
"((((((((((((((((((((((((((((((((((((((((((((((((((((((((((((((((((((((((((((((((((((((((((((((((((((((((((((((((((((((((((((((",
"((((((((((((((((((((((((((((((((((((((((((((((((((((((((((((((((((((((((((((((((((((((((((((((((((((((((((((((((((((((((((((((",
"((((((((((((((((((((((((((((((((((((((((((((((((((((((((((((((((((((((((((((((((((((((((((((((((((((((((((((((((((((((((((((((",
"((((((((((((((((((((((((((((((((((((((((((((((((((((((((((((((((((((((((((((((((((((((((((((((((((((((((((((((((((((((((((((((",
"((((((((((((((((((((((((((((((((((((((((((((((((((((((((((((((((((((((((((((((((((((((((((((((((((((((((((((((((((((((((((((((",
"((((((((((((((((((((((((((((((((((((((((((((((((((((((((((((((((((((((((((((((((((((((((((((((((((((((((((((((((((((((((((((((",
"((((((((((((((((((((((((((((((((((((((((((((((((((((((((((((((((((((((((((((((((((((((((((((((((((((((((((((((((((((((((((((((",
"((((((((((((((((((((((((((((((((((((((((((((((((((((((((((((((((((((((((((((((((((((((((((((((((((((((((((((((((((((((((((((((",
"((((((((((((((((((((((((((((((((((((((((((((((((((((((((((((((((((((((((((((((((((((((((((((((((((((((((((((((((((((((((((((((",
"((((((((((((((((((((((((((((((((((((((((((((((((((((((((((((((((((((((((((((((((((((((((((((((((((((((((((((((((((((((((((((((",
"(((((((((((((((((((((((((((((((((((((((((((((((((((((((((((((((((((((((((((((((((((((((((((((((((((((((((((((((((((((((((((((("
};
