/* XPM */
static char *a79f896bd96648c3e0e2e5b3e6e06024Un2HXGcdFqKiyQ8M[] = {
/* columns rows colors chars-per-pixel */
"64 64 92 1 ",
"  c #6E97AF",
". c #7396AC",
"X c #7997A8",
"o c #7698AC",
"O c #6197BB",
"+ c #6599BA",
"@ c #699AB8",
"# c #1C92DB",
"$ c #339CDD",
"% c #3D9FDC",
"& c #37A0DF",
"* c #3AA1DE",
"= c #159BF1",
"- c #159FF9",
"; c #359FE1",
": c #399FE1",
"> c #1EA6F5",
", c #16A6FD",
"< c #1AA6FD",
"1 c #16A8FE",
"2 c #1AA8FE",
"3 c #26A2ED",
"4 c #2CA3EE",
"5 c #36A1E2",
"6 c #3AA2E3",
"7 c #32A2E9",
"8 c #38A1E9",
"9 c #25A4F2",
"0 c #2AA4F2",
"q c #22A7FD",
"w c #21A8FC",
"e c #2BADFF",
"r c #30A8F4",
"t c #2DB3FF",
"y c #31B1FF",
"u c #3BB2F8",
"i c #549BC5",
"p c #599CC5",
"a c #569CC9",
"s c #599DCA",
"d c #469ED5",
"f c #499ED4",
"g c #46A1D6",
"h c #4BA1D5",
"j c #45A1DB",
"k c #68ACD6",
"l c #41A2E0",
"z c #4CAFE5",
"x c #5FB6E8",
"c c #4BB4F0",
"v c #59B9F3",
"b c #87A4B7",
"n c #82A4BA",
"m c #89A7BE",
"M c #8BA9BC",
"N c #9EFFFF",
"B c #A2FFFF",
"V c #ADFFFF",
"C c #B1FFFF",
"Z c #BDFFFF",
"A c #C1FFFF",
"S c #CCFFFF",
"D c #D5FEFF",
"F c #DAFDFF",
"G c #E6FBFF",
"H c #E9FBFF",
"J c #EAFBFF",
"K c #E9FCFF",
"L c #EBFCFF",
"P c #F7F7F3",
"I c #F4F7F4",
"U c #F6F7F7",
"Y c #F8F7F6",
"T c #FBF7F6",
"R c #F5F8F3",
"E c #F4F8F5",
"W c #F6F8F7",
"Q c #F9F9F7",
"! c #F4F6F8",
"~ c #F7F7F8",
"^ c #F6F7F9",
"/ c #F5F7FB",
"( c #F8F7F8",
") c #FBF7F8",
"_ c #F5F9F8",
"` c #F6F8F8",
"' c #F9F9F9",
"] c #F8FBF8",
"[ c #FBFBF9",
"{ c #FCF9FA",
"} c #F9FCF9",
"| c #F8FAFC",
/* pixels */
"U'UUYQUUYUU`WWWPUWUQYYUWWWWW```WWUU`UQWUWQQWRYW`WWWQYYYYQ`U'URWQ",
"U'(YYUQPQY~UWUUWWUQYYYWW'Q````~UWW'`UUWWUYUWUPWWWWW'YYYPUWU(UWYU",
"UYUWUQYUYQU~UWQQWU((UWWYFAZAZZZZZZAZAZF``'Q'UWWUWWWQ`U'(U`U'UYYY",
"WWUUUUQQUPY~UIPPU~(YUWRQFsssiaiiipipppoU~YYYUWUY'WWRYU~YW`'YUPWY",
"UQWW'{Y~YU`UUWQUW`JFAB3<226iiiipiaaa$<<>46ZFJYYYWWUUWYYY('(YQYWY",
"QWWW'Y'''UU`UUURU(JFa60<<,6ZZZZZZAZZN2><4:i.GUQYWWU`~(YQ(((YUPWY",
"UYUWUWU`~~UUWWUISB0206fp.UY'W~`/~~UQ((Fiaa6236S(WWU`'((YUWP'QQQY",
"UUWWUU``!~WUUIWWS*0208CZFPYY``~/~/UY(~FZAZBw3*+(QUUW((Y'UWUQYUYY",
"UYUWPU''``UWJFV236i.JUU'WW~~QPQW~UUUUQURW`KFa:4<hFJWWWUWWR')Q`WQ",
"`UQUUU(`U~UUKFd,06ZFJUUQWWU'UYQQ~~UUQQWWW`KFZBr<doJ!WWWWWW()YYRU",
"UWQYQWWRUQFAVt7*@```U(YWWU~~'UW'QQUYYT(~!```U`Fi62fGJ'UUQWY(YPQY",
"WWQYURWWUUFp697*S~``((YUQU(~'YUWYUY'YYQ~```WWUDZBqfMJQQQQQYYYUPY",
"WWWRWY'UJFC>%a.WU``UWWWWYYYY`~UEWWWQ``((~`WWWQPUJFfqdFKWPUUPYYYY",
"QRWWW'Y'KFh>6ZFQ'U`WUWWQYYQYUUUWWR`WW`((````WRQQGFCwg.GRWPQUQUYY",
"WWWW`WGFCy%iFWWW'U`UW`JF+aB2<2<<,2*ZAZAAF}E~WRWWWQD6#>xFJW~~~~`Y",
"WWW'``GFfq*pFR''(`UUU`JFSZ6<<,,2<<&aasaa.`!`UWWUWPSV49d.KW`~```Y",
"``UQPUSB*5+PU``WWWUUU!WWSN3<<<,<2<,21,,<<2dDGWUPPYQQA666SUUUU('~",
"``WQUYSc*6SW`!`WWQ'`UUWQS53<<<2222,1,,<<<,d GUUQYYYUSB$;+UUUUYUY",
"WPUWKFV1d.LQW``!WPQU`~WUZ,<,<22,2<1<,112<,,2iWUUWW~~GFd1fFKQU(YY",
"WQWRLFg1dFJPW~`!W}YW``~`Z<<2222,1<11111<,<<<iW~YUWUUGFV1fmLUW'YY",
"WW``DV*$+YYYW`W```'~'WWRRWWQFA6<2<<><1,2<1,<q:S|`WPQWQS566SWWUUU",
"WW~~Svj6SQUPUU``W`~~UWRWIWWWFZ6<<<,><1,2<,<<0;O~WWQRQWAN$*+WWU`Y",
"WQU'Zta~(UTYQQWWWU~~~(QYQWU`SN3,,,;aFPD:0<2<<<a`WWWWUUFZ5<a'`WWY",
"QW'YZwa/'QTYPUWWW'~|~''YWWW`S*32,,;iFUSB0222<<a~WWWEUWFZ;,aU`UUY",
"RUFZ52i`WWW`'YU~WWQYQWUUUYWWZ<<,2,;aGW}YAq2<,<iU''```W!!Z<gFK'YY",
"QWFZ52a`WE``'{'~UWQYQWUQUQQWZ2>,,<5aFQ}YAq2<22aQ''/``}W!Z<g.KY'Y",
"U`FZaaFWUW``W``'UWUYY'FZZCVN0,<,,<5aG[KFV2,,,<i```W```WPS5giF``Y",
"`WFZaiFWUWW`U`(''UUUYYFaaad60,2,<<5iF{LFd<2<,2iYW`W```WWANdiFU`Y",
"UUZ>6iFQQRYYYYTQ'QUWWYZ-2222q<2<22<10V02<,,,21iRWWWWWWW!DZisFWRY",
"Q'Z<6pF`WWYY){YWYUWWQYA<2>22,<<<,<,,060<<,,,,1iWWWRWWUWWDZaiFWUY",
"UWZ,&iFWUUQQYWRRU`UUUUZ2,1,<<<2<22<2,>,,<><<d.GWWWWWQRU(FZpiFWWP",
"WRZ25iFWQPPU~WWWW`U`UPZ2,112<<,,2<<,,,,,2,q<fDGWWWRQWWQYFZiiFRWQ",
"YUZ<;iD~``YYUUUU`U``WWS6322,,<,<<<<,<2<<><:p.~UUYUUYQ~'`DZaaDWWU",
"~UZ<:iF~``UQUWUQ`W`WWWDB42,1,,<,<<<,<<2<<<6ZF''UY'QYY'UUFZsaFUWU",
"UWS6daF('UYYUWRWUQUWUWWWU~C2,,,,<<5iiiii+ J~~(U`~U~~UYWWSBfiFQQY",
"WWSBfaFU'(YQRRRRWPUWRWWW`!C,11,<2<*ZZZZZSFJ~~(~U'~'~'UQPS6fpFPQY",
"QRFZ%<iW``WWUQUWW`WQUYUW``Z,,2<205S|WU`|''YU'U`W`~~UWWPUZ<f.JYYY",
"UWDZ6<a`UUWWWUWWPWUUQQUW}`Z<<<<<9;+'(`~|'Q(~UU'W~|~QWWUUZ<dFJUYY",
"U'`~Z<a|(TQWUU~YWRUUWQQUWWZ,22112<iRYYYYYYQQUQUU~WWYW~FA62i~YUYY",
"U'~~Z<i|(YWWW`U'UWWWUUUUWUZ,,,1,2<i~'YTYPYP{YUWWUWUYYQFA52a~~UUY",
"QYWWAe6aF(UUYUYYYPPUUUPWWWZ2,1,1,<iWWRWWWWWWIWWPQUY{QWSV;6+`WPUU",
"U'QRZqlaF~'YUU'YYQYQQUUQUUZ1,121,<iEWWWWWWWWWIUWP~YYYWS6:;SWWWQY",
"UUQWFZ:2p~WWRWWWUPQYQRRURUZ12<<,2<a!YYQ'QQUUPUUWUUUQJFC<hnJWWWUP",
"YPURDZ%qi(UWWWWQQUYPWWWWWUZ2,<<122aWQY''QUUQUUWWQWPQJFf>fFJWWUUU",
"````~~Z24:D'W`Y('YWWWUWWQYA<,<,<96+WWR`WUYQUU'``WPQPSV56+UUQPRWW",
"````~`At0:OUU(((Y'RWPQWWYYZ22<<,0:SWWWUU''UWUUWUUQUUS66&S(Q'WWRQ",
"W`WWUYJFf>dDG(((YQWWUQURUWZq2<<<;aDWW```UYWWWYUWWUFZB=iRUW`'YUQY",
"U~WWUYJFC2d GUYYYQUUUWPWWYZ222<,8aDWWW`UUQPWWUUWUWFs6qkWUU~~QQQY",
"UWWWUW~WDZ5<a!~~PWURW`WQWPZ<<<,15iF`WWYUWWWPQU'WGFV2dbJUYUUYUWWQ",
"WUWWUU!!FZ6,a~~UU'PWW`PWQQZ>><21$iF`WWUPRPQQU'QWGDg,dGJUUYYUWWWP",
"WWWW~'`~W(Dz4<iUWWUPW`~WWYYYQYQQ`~~('WQQQPRWUPGFC24%@WQUUYQY//`Q",
"`RWQY~~'UYSVu<i~UW!U'~~WPPQQUQUP`/'YUUY'UQQWWYKFf24jSUUWYQUU/~~Y",
"WWWQYYUWWW}WS6415ZFUURWWWYUWRQWR`/''~~{YUUWWFZB26pXYYYUQUUPW'Y(Y",
"WWPQQQUUWIRWSN3<;i.UWUWW`~WWPQWR`````~(YQUWRFp*2%AFYYYPWUWUW'Y{Y",
"WUQPQUQQWWWWW`GDf23;ZFJPQUPPURWWWWWU`!`~FZVB0wfXL~U(('YUUUPWUW~U",
"WQQUUYYYWWWWWUGFC23;i.JUYQYQUWWRWUUU`~!UFid67qfFLYUY'(QUUQUWUUUY",
"`QWWUPUPWWWQWQUU``Fa622195VZZZZZZZAZB2<<2<*poQURWWUUQ'YUUP``~WQY",
"'QWWPQPUWRQQQQPU~!FZB22295daiaiaaiis62<112&ZF'UR'WRUUQUUUQWW~UQY",
"UWUUWW'WWWWR`~IU!W``U~GF+a62<2<<<,05dpoREW!WW'UUWW(~YYQ~UWUWUW`Q",
"WU''WRUWWWWW`!~UW!`~~`GFSZB2,q<2<205CZF`W!WWUUUQWW((YPYWUUWWUUUY",
"`/`~UWWY'U'U`UPWWPU~'QYQW'UUW`'WUWUWWQ~~WWWWYQYYQ`WQU'URWWWWWWIW",
"`~|~'WQUYWWW`QWRUQWWUQYPQ`UWWWW'`WWWQQ``'WRWQ'YYQWQWQQWWWRQWWIRU",
"YY(YYYYYYYYYYYUYYYYYYYYYYYUUYYYYQYYYYY~UYYYYYYYYYYQUYYYYWYYYYYYY",
"YYYYYYYYYYYYYYYYYYYYYYYYYYYUYYYYYYYYYYYYYYYYYYYYYYYYYYYYYYYYYYYY"
};
